<svg width="40" height="40" viewBox="0 0 40 40" fill="none" xmlns="http://www.w3.org/2000/svg">
<path fill-rule="evenodd" clip-rule="evenodd" d="M20 40C31.0457 40 40 31.0457 40 20C40 8.9543 31.0457 0 20 0C8.9543 0 0 8.9543 0 20C0 31.0457 8.9543 40 20 40Z" fill="#BABAC0"/>
<path fill-rule="evenodd" clip-rule="evenodd" d="M23.0675 20.0514C23.5144 19.7107 23.8937 19.5982 24.2051 19.7141C24.5166 19.8299 24.7266 20.0037 24.8349 20.2354C25.0516 20.6578 25.055 21.0019 24.8451 21.2677C24.6351 21.5334 24.2661 21.8367 23.7379 22.1774C23.291 22.4635 22.7933 22.6714 22.2448 22.8008C21.6963 22.9303 21.2189 23.0155 20.8126 23.0564L23.9614 26.2249C24.151 26.4157 24.2458 26.6439 24.2458 26.9097C24.2458 27.1754 24.151 27.4037 23.9614 27.5945L23.8598 27.7171C23.6702 27.9079 23.44 28.0033 23.1691 28.0033C22.8982 28.0033 22.668 27.9079 22.4784 27.7171C22.1669 27.3901 21.7945 27.0085 21.3611 26.5724C20.9277 26.1363 20.4808 25.6798 20.0203 25.2028L17.5419 27.7171C17.3523 27.9079 17.1255 28.0033 16.8614 28.0033C16.5973 28.0033 16.3704 27.9079 16.1808 27.7171L16.0589 27.5945C15.8693 27.4037 15.7745 27.1754 15.7745 26.9097C15.7745 26.6439 15.8693 26.4157 16.0589 26.2249C16.3704 25.9114 16.7429 25.5333 17.1763 25.0903C17.6096 24.6474 18.0633 24.1943 18.5373 23.7309L19.2077 23.0564C18.8014 23.0155 18.3207 22.9303 17.7654 22.8008C17.2101 22.6714 16.709 22.4635 16.2621 22.1774C15.7339 21.8367 15.3649 21.5334 15.1549 21.2677C14.945 21.0019 14.9484 20.6578 15.1651 20.2354C15.2734 20.0037 15.4834 19.8299 15.7949 19.7141C16.1063 19.5982 16.4856 19.7107 16.9325 20.0514C17.5148 20.5284 18.1717 20.8043 18.903 20.8793C19.6343 20.9542 20 20.9917 20 20.9917C20 20.9917 20.3657 20.9542 21.097 20.8793C21.8283 20.8043 22.4852 20.5284 23.0675 20.0514ZM20 12C20.5539 12 21.0725 12.106 21.5556 12.3181C22.0386 12.5301 22.4605 12.8161 22.8213 13.1759C23.182 13.5357 23.4686 13.9598 23.6812 14.4482C23.8937 14.9365 24 15.457 24 16.0096C24 16.5623 23.8937 17.0795 23.6812 17.5614C23.4686 18.0434 23.182 18.4643 22.8213 18.8241C22.4605 19.1839 22.0386 19.4699 21.5556 19.6819C21.0725 19.894 20.5539 20 20 20C19.4461 20 18.9275 19.894 18.4444 19.6819C17.9614 19.4699 17.5395 19.1839 17.1787 18.8241C16.818 18.4643 16.5314 18.0434 16.3188 17.5614C16.1063 17.0795 16 16.5623 16 16.0096C16 15.457 16.1063 14.9365 16.3188 14.4482C16.5314 13.9598 16.818 13.5357 17.1787 13.1759C17.5395 12.8161 17.9614 12.5301 18.4444 12.3181C18.9275 12.106 19.4461 12 20 12ZM20 14C19.451 14 18.9804 14.1928 18.5882 14.5784C18.1961 14.9641 18 15.4379 18 16C18 16.549 18.1961 17.0196 18.5882 17.4118C18.9804 17.8039 19.451 18 20 18C20.549 18 21.0196 17.8039 21.4118 17.4118C21.8039 17.0196 22 16.549 22 16C22 15.4379 21.8039 14.9641 21.4118 14.5784C21.0196 14.1928 20.549 14 20 14Z" fill="#333333"/>
</svg>
