<svg width="108" height="26" viewBox="0 0 108 26" fill="none" xmlns="http://www.w3.org/2000/svg">
<g clip-path="url(#clip0_2608_36545)">
<path d="M77.2344 11.1444V20.6834C77.2344 22.0673 77.8769 22.7593 79.1621 22.8334C79.3845 22.8334 79.6317 22.8087 79.8788 22.7593C80.1259 22.7099 80.3484 22.6604 80.5214 22.5863L80.299 21.2518C80.0765 21.3013 79.9282 21.326 79.8047 21.326C79.5328 21.326 79.3598 21.2518 79.2362 21.1035C79.1127 20.9553 79.0632 20.7081 79.0632 20.3622V10.9961L77.2344 11.1444Z" fill="white"/>
<path d="M58.916 20.1911C59.3362 21.0314 59.954 21.6492 60.7449 22.094C61.5604 22.5388 62.4996 22.7613 63.6364 22.7613C64.3037 22.7613 64.971 22.6871 65.663 22.5388C66.355 22.3906 66.9976 22.1682 67.6154 21.8716V17.2998H63.3152V18.7331H65.8113V20.9325C65.49 21.0561 65.1687 21.1302 64.798 21.2044C64.4273 21.2785 64.0813 21.3032 63.7106 21.3032C62.9197 21.3032 62.2524 21.1302 61.7334 20.7842C61.2144 20.4136 60.8437 19.944 60.5966 19.3509C60.3494 18.7578 60.2259 18.0659 60.2259 17.2998C60.2259 16.4348 60.3742 15.6687 60.6954 15.0509C60.992 14.4331 61.4369 13.9636 62.0053 13.6423C62.5737 13.321 63.241 13.148 63.9824 13.148C64.8722 13.148 65.8113 13.3705 66.7999 13.84L67.2694 12.4067C66.7752 12.1595 66.2561 11.9866 65.6877 11.8383C65.1193 11.7147 64.5262 11.6406 63.9083 11.6406C62.8456 11.6406 61.8817 11.863 61.0414 12.2831C60.1764 12.7032 59.5092 13.3458 59.0149 14.186C58.5206 15.0262 58.2734 16.0641 58.2734 17.2751C58.2734 18.3871 58.4959 19.3756 58.916 20.1911Z" fill="white"/>
<path fill-rule="evenodd" clip-rule="evenodd" d="M33.4149 19.723H37.7646L38.8521 22.6144H40.8539L36.5042 11.7656H34.7001L30.4492 22.6144H32.3522L33.4149 19.723ZM37.1962 18.2403H33.9586L35.1202 15.1018L35.5651 13.6932C35.7134 14.2121 35.8864 14.7064 36.0346 15.1265L37.1962 18.2403Z" fill="white"/>
<path fill-rule="evenodd" clip-rule="evenodd" d="M41.5756 14.6857C41.5984 15.3442 41.6197 15.9586 41.6197 16.5091H41.595V25.9741L43.4486 25.8258V22.4402C43.9923 22.6132 44.536 22.712 45.0797 22.712C45.8459 22.712 46.5132 22.539 47.0816 22.193C47.6747 21.8718 48.1196 21.3528 48.4409 20.6856C48.7622 20.0183 48.9352 19.2028 48.9352 18.2637C48.9352 17.3741 48.7869 16.6327 48.515 16.0396C48.2432 15.4465 47.8724 15.0264 47.4029 14.7545C46.9333 14.4827 46.439 14.3591 45.8953 14.3591C44.9562 14.3591 44.1406 14.7546 43.4239 15.5454C43.3992 15.1994 43.3745 14.8781 43.3003 14.5321H41.5703L41.5756 14.6857ZM47.0569 18.412C47.0569 19.4005 46.8592 20.1419 46.4885 20.6362C46.093 21.1551 45.5493 21.4022 44.8573 21.4022C44.6349 21.4022 44.3877 21.3775 44.1406 21.3281C43.8935 21.2787 43.671 21.2045 43.498 21.1057V16.781C43.7699 16.4844 44.0665 16.262 44.363 16.089C44.6596 15.916 44.9809 15.8419 45.3516 15.8419C45.8706 15.8419 46.266 16.0643 46.5873 16.4597C46.9086 16.8551 47.0569 17.4976 47.0569 18.412Z" fill="white"/>
<path fill-rule="evenodd" clip-rule="evenodd" d="M50.0455 16.5091C50.0455 15.9586 50.0242 15.3442 50.0014 14.6857L49.9961 14.5321H51.7261C51.8002 14.8781 51.825 15.1994 51.8497 15.5454C52.5664 14.7546 53.382 14.3591 54.3211 14.3591C54.8648 14.3591 55.3591 14.4827 55.8287 14.7545C56.2982 15.0264 56.669 15.4465 56.9408 16.0396C57.2127 16.6327 57.361 17.3741 57.361 18.2637C57.361 19.2028 57.188 20.0183 56.8667 20.6856C56.5454 21.3528 56.1005 21.8718 55.5074 22.193C54.939 22.539 54.2717 22.712 53.5055 22.712C52.9618 22.712 52.4181 22.6132 51.8744 22.4402V25.8258L50.0208 25.9741V16.5091H50.0455ZM54.9142 20.6362C55.285 20.1419 55.4827 19.4005 55.4827 18.412C55.4827 17.4976 55.3344 16.8551 55.0131 16.4597C54.6918 16.0643 54.2964 15.8419 53.7774 15.8419C53.4067 15.8419 53.0854 15.916 52.7888 16.089C52.4922 16.262 52.1957 16.4844 51.9238 16.781V21.1057C52.0968 21.2045 52.3192 21.2787 52.5664 21.3281C52.8135 21.3775 53.0607 21.4022 53.2831 21.4022C53.9751 21.4022 54.5435 21.1551 54.9142 20.6362Z" fill="white"/>
<path fill-rule="evenodd" clip-rule="evenodd" d="M74.1183 22.6145C74.0441 22.2932 74.0194 21.9473 73.9947 21.5519C73.6981 21.8978 73.3521 22.1697 72.8825 22.4168C72.4377 22.6639 71.9187 22.7628 71.3255 22.7628C70.856 22.7628 70.4358 22.6639 70.0651 22.4909C69.6944 22.318 69.3731 22.0461 69.1507 21.6754C68.9283 21.3047 68.8047 20.8599 68.8047 20.341C68.8047 19.5501 69.0765 18.9323 69.645 18.4628C70.2134 17.9933 71.1525 17.7708 72.4624 17.7708C72.9567 17.7708 73.451 17.7956 73.9205 17.8697V17.7214C73.9205 17.0047 73.7722 16.5105 73.4757 16.2139C73.1791 15.9174 72.7343 15.7691 72.1658 15.7691C71.7704 15.7691 71.3503 15.8185 70.9054 15.9421C70.4605 16.0657 70.0651 16.1892 69.7191 16.3622L69.4225 15.0277C69.7438 14.8795 70.1887 14.7312 70.7324 14.6076C71.2761 14.4841 71.8445 14.4099 72.4377 14.4099C73.1297 14.4099 73.7228 14.5088 74.2171 14.7312C74.7114 14.9536 75.0821 15.2996 75.354 15.8185C75.6258 16.3375 75.7741 17.0295 75.7741 17.8944V21.107C75.7741 21.3604 75.7874 21.6932 75.8042 22.1152C75.8103 22.2696 75.8169 22.4358 75.8235 22.6145H74.1183ZM73.0308 21.107C73.4263 20.9341 73.7228 20.6869 73.97 20.4151V18.9076C73.4757 18.8582 73.0555 18.8335 72.7342 18.8335C71.9681 18.8335 71.4491 18.957 71.1525 19.2042C70.856 19.4513 70.7077 19.7726 70.7077 20.1927C70.7077 20.5881 70.8065 20.8846 71.029 21.0823C71.2514 21.28 71.5233 21.3789 71.894 21.3789C72.2647 21.4036 72.6354 21.3047 73.0308 21.107Z" fill="white"/>
<path d="M81.8281 20.6834V11.1444L83.657 10.9961V20.3622C83.657 20.7081 83.7064 20.9553 83.83 21.1035C83.9535 21.2518 84.1265 21.326 84.3984 21.326C84.522 21.326 84.6703 21.3013 84.8927 21.2518L85.1151 22.5863C84.9421 22.6604 84.7197 22.7099 84.4725 22.7593C84.2254 22.8087 83.9783 22.8334 83.7558 22.8334C82.4707 22.7593 81.8281 22.0673 81.8281 20.6834Z" fill="white"/>
<path fill-rule="evenodd" clip-rule="evenodd" d="M87.3939 18.8074H92.658V18.3132C92.658 17.5965 92.5345 16.9293 92.2873 16.3362C92.0402 15.7431 91.6695 15.2488 91.1505 14.9028C90.6562 14.5321 90.0136 14.3591 89.2475 14.3591C88.5061 14.3591 87.8635 14.5321 87.2951 14.8781C86.7266 15.2241 86.3065 15.7183 85.9852 16.3609C85.6639 17.0034 85.5156 17.7695 85.5156 18.6591C85.5156 19.5241 85.6639 20.2407 85.9605 20.8586C86.257 21.4764 86.7019 21.9459 87.2951 22.2672C87.8882 22.5884 88.6049 22.7614 89.4699 22.7614C90.5821 22.7614 91.5953 22.539 92.5098 22.0942L92.1143 20.8339C91.7436 20.9821 91.3729 21.1057 90.9775 21.2045C90.5821 21.3034 90.1866 21.3528 89.8159 21.3528C88.2836 21.3528 87.4681 20.4879 87.3939 18.8074ZM90.8776 17.6212C90.8494 16.9907 90.6771 16.505 90.3843 16.1879C90.0878 15.8666 89.7171 15.6936 89.2228 15.6936C88.7532 15.6936 88.3578 15.8666 88.0612 16.1879C87.7399 16.5091 87.5422 17.0034 87.4433 17.6212H90.8776Z" fill="white"/>
<path d="M94.0612 16.5599C94.0612 16.2418 94.0485 15.8101 94.0323 15.2555C94.0258 15.0345 94.0188 14.794 94.0117 14.5335H95.7417C95.7664 14.7559 95.7912 15.0277 95.8159 15.349C95.8214 15.4213 95.827 15.4898 95.8323 15.5548C95.8504 15.779 95.8653 15.9619 95.8653 16.1151C96.0877 15.7691 96.2855 15.4726 96.5079 15.2254C96.7056 14.9783 96.9527 14.7806 97.2246 14.6323C97.4964 14.4841 97.8177 14.4099 98.1637 14.4099C98.4603 14.4099 98.6827 14.4346 98.9052 14.5088L98.6827 16.1151C98.5097 16.0657 98.312 16.041 98.0896 16.041C97.6447 16.041 97.274 16.1398 96.9527 16.3622C96.6314 16.5846 96.2855 16.9553 95.9147 17.4496V22.6392H94.0859V16.5599H94.0612Z" fill="white"/>
<path d="M99.2773 25.7505C99.4503 25.8247 99.6728 25.8741 99.9446 25.9235C100.216 25.9729 100.513 25.9977 100.81 25.9977C101.452 25.9977 101.971 25.8741 102.416 25.6517C102.836 25.4046 103.232 25.0586 103.553 24.589C103.874 24.1195 104.195 23.477 104.467 22.7109L107.433 14.531H105.579L104.072 19.1276C103.874 19.7207 103.726 20.289 103.578 20.8821C103.503 20.4867 103.355 19.8689 103.108 19.1028L101.6 14.5557H99.6234L102.589 22.6862L102.465 22.9827C102.07 24.0454 101.452 24.5643 100.637 24.5643C100.483 24.5643 100.33 24.5449 100.159 24.5232C100.137 24.5205 100.115 24.5177 100.093 24.5149C99.9611 24.4984 99.8513 24.471 99.7561 24.4472C99.7085 24.4353 99.6645 24.4243 99.6234 24.4161L99.2773 25.7505Z" fill="white"/>
<path d="M61.0456 7.04309V3.97873C61.0456 3.62334 61.0655 3.22802 61.0875 2.79277L61.095 2.64425L58.2776 7.04309H57.2148V1.45804H58.1046V4.64597C58.1046 4.99195 58.1046 5.36264 58.0798 5.78275L60.8478 1.45804H61.96V7.04309H61.0456Z" fill="white"/>
<path d="M58.8707 0.963792C58.673 0.864941 58.5 0.716666 58.4011 0.543678C58.3023 0.370689 58.2281 0.197701 58.2034 0H58.8954C58.9696 0.420114 59.2167 0.617815 59.6121 0.617815C60.0076 0.617815 60.2547 0.420114 60.3536 0H61.0456C61.0208 0.197701 60.9467 0.370689 60.8478 0.543678C60.749 0.716666 60.576 0.840229 60.3783 0.963792C60.1806 1.08735 59.9087 1.13678 59.6121 1.13678C59.3403 1.13678 59.0684 1.06264 58.8707 0.963792Z" fill="white"/>
<path fill-rule="evenodd" clip-rule="evenodd" d="M31.3346 6.77135C30.9145 6.54893 30.6179 6.20295 30.3955 5.78284C30.1731 5.36273 30.0742 4.86847 30.0742 4.30008C30.0742 3.70698 30.1978 3.18802 30.4202 2.74319C30.6427 2.29836 30.9887 1.95239 31.4088 1.72997C31.8537 1.48285 32.3479 1.35928 32.9411 1.35928C33.5095 1.35928 33.9791 1.48285 34.3992 1.70526C34.7946 1.92767 35.1159 2.27365 35.3384 2.69376C35.5608 3.11388 35.6596 3.60813 35.6596 4.15181C35.6596 4.74491 35.5361 5.26388 35.3136 5.7087C35.0912 6.15353 34.7452 6.49951 34.3251 6.72192C33.9049 6.96905 33.3859 7.09261 32.8175 7.09261C32.2491 7.11732 31.7548 6.99376 31.3346 6.77135ZM33.8555 6.07939C34.1274 5.9064 34.3251 5.65928 34.4734 5.33801C34.5969 5.01675 34.6711 4.64606 34.6711 4.25066C34.6711 3.85526 34.6217 3.48457 34.4981 3.18802C34.3745 2.86675 34.2015 2.61963 33.9296 2.44664C33.6578 2.24894 33.3365 2.1748 32.9164 2.1748C32.5209 2.1748 32.1996 2.27365 31.9278 2.44664C31.6559 2.64434 31.4582 2.89146 31.3099 3.21273C31.1616 3.53399 31.1122 3.87997 31.1122 4.27537C31.1122 4.67077 31.1864 5.04146 31.3099 5.36273C31.4335 5.68399 31.6312 5.93112 31.9031 6.12882C32.1749 6.32652 32.4962 6.40066 32.8917 6.40066C33.2377 6.35123 33.5836 6.27709 33.8555 6.07939Z" fill="white"/>
<path d="M37.6167 2.24901H35.8867L35.9609 1.4335H40.3353L40.2364 2.24901H38.5806V7.04326H37.6167V2.24901Z" fill="white"/>
<path d="M44.4354 7.04318H45.5229L43.4469 3.92939L44.4602 2.47135C44.5343 2.34779 44.6332 2.24894 44.7073 2.19951C44.7814 2.15009 44.8803 2.12537 45.0039 2.12537C45.1027 2.12537 45.2016 2.15009 45.3004 2.19951L45.4982 1.45813C45.3499 1.384 45.1521 1.35928 44.9297 1.35928C44.6826 1.35928 44.4602 1.40871 44.2872 1.53227C44.1142 1.65583 43.9412 1.82882 43.7682 2.07595L42.6066 3.75641H42.1123V1.45813H41.1484V7.04318H42.1123V4.57192H42.7796L44.4354 7.04318Z" fill="white"/>
<path fill-rule="evenodd" clip-rule="evenodd" d="M46.2656 1.45693H47.7732C48.4899 1.45693 49.0336 1.60521 49.4043 1.90176C49.7751 2.19831 49.9728 2.61843 49.9728 3.1621C49.9728 3.53279 49.8986 3.85406 49.7256 4.1259C49.5526 4.39773 49.3302 4.62015 49.0089 4.76842C48.7123 4.9167 48.3663 4.99084 47.9709 4.99084C47.7485 4.99084 47.5013 4.96612 47.2295 4.9167V7.04198H46.2656V1.45693ZM48.6876 3.95291C48.8853 3.75521 48.9842 3.50808 48.9842 3.1621C48.9842 2.81613 48.8853 2.569 48.6629 2.42072C48.4652 2.27245 48.1439 2.19831 47.7485 2.19831H47.2295V4.17532C47.4766 4.22475 47.6496 4.22475 47.7732 4.22475C48.1686 4.22475 48.4899 4.1259 48.6876 3.95291Z" fill="white"/>
<path fill-rule="evenodd" clip-rule="evenodd" d="M50.8877 5.78284C51.1101 6.20295 51.4067 6.54893 51.8268 6.77135C52.2223 6.99376 52.7165 7.11732 53.3097 7.09261C53.8781 7.09261 54.3971 6.96905 54.8172 6.72192C55.2374 6.49951 55.5834 6.15353 55.8058 5.7087C56.0283 5.26388 56.1518 4.74491 56.1518 4.15181C56.1518 3.60813 56.053 3.11388 55.8305 2.69376C55.6081 2.27365 55.2868 1.92767 54.8914 1.70526C54.4713 1.48285 54.0017 1.35928 53.4333 1.35928C52.8401 1.35928 52.3458 1.48285 51.901 1.72997C51.4808 1.95239 51.1348 2.29836 50.9124 2.74319C50.69 3.18802 50.5664 3.70698 50.5664 4.30008C50.5664 4.86847 50.6653 5.36273 50.8877 5.78284ZM54.9408 5.33801C54.7925 5.65928 54.5948 5.9064 54.323 6.07939C54.0511 6.27709 53.7298 6.35123 53.3591 6.40066C52.9637 6.40066 52.6424 6.32652 52.3705 6.12882C52.0987 5.93112 51.901 5.68399 51.7774 5.36273C51.6538 5.04146 51.5797 4.67077 51.5797 4.27537C51.5797 3.87997 51.6291 3.53399 51.7774 3.21273C51.9257 2.89146 52.1234 2.64434 52.3953 2.44664C52.6671 2.27365 52.9884 2.1748 53.3838 2.1748C53.804 2.1748 54.1253 2.24894 54.3971 2.44664C54.669 2.61963 54.842 2.86675 54.9655 3.18802C55.0891 3.48457 55.1385 3.85526 55.1385 4.25066C55.1385 4.64606 55.0644 5.01675 54.9408 5.33801Z" fill="white"/>
<path d="M62.7734 2.24901H64.4787V7.04326H65.4426V2.24901H67.0984L67.1973 1.4335H62.8476L62.7734 2.24901Z" fill="white"/>
<path d="M68.0117 1.45693H71.2987L71.1999 2.24774H68.9756V3.77992H71.0763V4.5213H68.9756V6.22647H71.3234L71.2493 7.01727H68.0117V1.45693Z" fill="white"/>
<path fill-rule="evenodd" clip-rule="evenodd" d="M78.5405 4.76842C78.417 4.54601 78.2687 4.39773 78.071 4.27417C77.8732 4.15061 77.6508 4.07647 77.4037 4.05176C77.7002 3.95291 77.9474 3.80463 78.1451 3.58222C78.3181 3.3598 78.417 3.06325 78.417 2.74199C78.417 2.34659 78.2687 2.02532 77.9721 1.80291C77.6755 1.5805 77.2307 1.45693 76.6375 1.45693H74.8828V7.01727H76.7117C77.1318 7.01727 77.5025 6.94313 77.7991 6.81957C78.0957 6.69601 78.3428 6.52302 78.4911 6.27589C78.6394 6.05348 78.7135 5.78164 78.7135 5.46038C78.7135 5.21325 78.6641 4.96612 78.5405 4.76842ZM76.4398 3.73049H75.822V2.14889H76.4645C76.7858 2.14889 77.0082 2.19831 77.1812 2.32187C77.3542 2.44544 77.4284 2.61843 77.4284 2.84084C77.4284 3.01383 77.379 3.1621 77.3048 3.28567C77.2307 3.40923 77.1071 3.53279 76.9588 3.60693C76.8105 3.68107 76.6375 3.73049 76.4398 3.73049ZM77.7497 5.38624C77.7497 5.68279 77.6508 5.9052 77.4531 6.07819C77.2554 6.25118 76.9588 6.32532 76.5634 6.3006H75.8467V4.42245H76.4892C76.9094 4.42245 77.2059 4.49658 77.4284 4.66957C77.6508 4.84256 77.7497 5.06497 77.7497 5.38624Z" fill="white"/>
<path fill-rule="evenodd" clip-rule="evenodd" d="M16.8551 1.48438H6.59872C1.75472 1.48438 0 3.26368 0 8.08264V18.3384C0 23.182 1.77943 24.9366 6.59872 24.9366H16.8551C21.6991 24.9366 23.4539 23.1573 23.4539 18.3384V8.08264C23.4786 3.26368 21.6991 1.48438 16.8551 1.48438Z" fill="#C8102E"/>
<path d="M4.64546 13.2227H5.26331V16.2872H4.64546V15.0515H3.23675V16.2872H2.6189V13.2227H3.23675V14.4584H4.64546V13.2227ZM8.15489 14.9774C8.15489 15.4717 7.90775 15.7435 7.46289 15.7435C7.01803 15.7435 6.77089 15.4717 6.77089 14.9527V13.2227H6.15304V14.9774C6.15304 15.8424 6.6226 16.3367 7.46289 16.3367C8.30317 16.3367 8.79747 15.8424 8.79747 14.9527V13.2227H8.17961V14.9774H8.15489ZM15.3468 15.3234L14.6547 13.2227H14.1357L13.4437 15.3234L12.7765 13.2227H12.1092L13.1719 16.2872H13.6909L14.3829 14.2607L15.0749 16.2872H15.5939L16.6566 13.2227H16.014L15.3468 15.3234ZM17.7935 14.9774H18.9303V14.4089H17.7935V13.7911H19.4493V13.2227H17.2003V16.2872H19.5235V15.7188H17.8182V14.9774H17.7935ZM20.2402 16.2872H20.858V13.2227H20.2402V16.2872ZM10.0085 15.6447L9.73661 16.2872H9.09403L10.4286 13.2227H10.9723L12.3069 16.2872H11.6643L11.3925 15.6447H10.0085ZM10.2309 15.1009H11.17L10.7005 14.0135L10.2309 15.1009Z" fill="white"/>
<path d="M11.7386 9.31865C9.58845 9.31865 7.83374 7.56406 7.83374 5.41406H8.37746C8.37746 7.26751 9.88502 8.77498 11.7386 8.77498C13.5922 8.77498 15.0997 7.26751 15.0997 5.41406H15.6434C15.6434 7.56406 13.8887 9.31865 11.7386 9.31865Z" fill="white"/>
</g>
<defs>
<clipPath id="clip0_2608_36545">
<rect width="108" height="25.9984" fill="white"/>
</clipPath>
</defs>
</svg>
