<svg width="108" height="26" viewBox="0 0 108 26" fill="none" xmlns="http://www.w3.org/2000/svg">
<g clip-path="url(#clip0_2608_36540)">
<path d="M13.7491 0.15625C13.8501 1.47522 13.433 2.78161 12.5863 3.798C12.1809 4.30226 11.6664 4.70794 11.0814 4.98451C10.4965 5.26107 9.85642 5.4013 9.20943 5.39464C9.16815 4.76037 9.25229 4.12417 9.45703 3.52243C9.66177 2.92069 9.9831 2.3652 10.4027 1.88772C11.2608 0.910324 12.4556 0.292109 13.7491 0.15625Z" fill="white"/>
<path d="M16.1104 9.75636C15.6805 10.5137 15.4492 11.3676 15.438 12.2384C15.439 13.2179 15.7284 14.1754 16.27 14.9916C16.8116 15.8078 17.5815 16.4464 18.4836 16.828C18.1289 17.9802 17.5943 19.0692 16.8995 20.0544C15.9664 21.4502 14.988 22.8139 13.4352 22.8391C12.6967 22.8562 12.1982 22.6438 11.6787 22.4225C11.1369 22.1917 10.5722 21.9512 9.6887 21.9512C8.75167 21.9512 8.16177 22.1994 7.59283 22.4389C7.10117 22.6458 6.62517 22.8461 5.95433 22.8739C4.47551 22.9287 3.34532 21.3842 2.37829 20.0014C0.445469 17.1776 -1.05958 12.0435 0.958156 8.55012C1.42395 7.71309 2.09863 7.01099 2.91645 6.51224C3.73426 6.01348 4.66733 5.73507 5.62474 5.70414C6.46347 5.68688 7.26828 6.01015 7.97389 6.29357C8.51351 6.51032 8.99511 6.70376 9.38948 6.70376C9.73615 6.70376 10.2043 6.51796 10.7499 6.30142C11.6094 5.96032 12.661 5.54294 13.7326 5.65543C14.5539 5.68112 15.3579 5.89797 16.0807 6.28874C16.8035 6.67951 17.4253 7.23344 17.8966 7.90653C17.1547 8.36263 16.5402 8.99898 16.1104 9.75636Z" fill="white"/>
<path d="M67.5078 21.3934C65.8023 21.3934 64.5542 20.5498 64.4105 19.265L62.4258 19.2649C62.5511 21.6083 64.491 23.0907 67.3641 23.0907C70.4349 23.0907 72.3656 21.5726 72.3656 19.1488C72.3656 17.2538 71.2612 16.186 68.603 15.5574L67.1756 15.2069C65.5058 14.7943 64.8231 14.2553 64.8231 13.3394C64.8231 12.1901 65.8919 11.4005 67.4538 11.4005C69.0157 11.4005 70.0844 12.181 70.2016 13.4739H72.1588C72.0957 11.2385 70.2189 9.70312 67.4813 9.70312C64.7152 9.70312 62.7671 11.2385 62.7671 13.4739C62.7671 15.2793 63.8716 16.3918 66.2506 16.9665L67.9296 17.371C69.6087 17.7836 70.3178 18.3857 70.3178 19.3913C70.3178 20.5498 69.142 21.3934 67.5078 21.3934Z" fill="white"/>
<path fill-rule="evenodd" clip-rule="evenodd" d="M28.7893 19.3758H33.7277L34.9126 22.8775H37.0399L32.3624 9.92188H30.1892L25.5117 22.8775H27.6034L28.7893 19.3758ZM33.2152 17.7599H29.3008L31.2316 12.0768H31.2856L33.2152 17.7599Z" fill="white"/>
<path fill-rule="evenodd" clip-rule="evenodd" d="M43.2018 22.9732C45.5726 22.9732 47.1437 21.0874 47.1437 18.1521C47.1437 15.2249 45.5634 13.3299 43.1661 13.3299C42.5607 13.3103 41.9613 13.4553 41.4316 13.7494C40.902 14.0434 40.462 14.4755 40.1585 14.9998H40.1228V13.4287H38.2461V25.9992H40.185V21.3207H40.2298C40.52 21.8474 40.9527 22.2818 41.4783 22.574C42.0039 22.8663 42.6012 23.0047 43.2018 22.9732ZM42.6547 14.9824C44.1625 14.9824 45.1508 16.2397 45.1508 18.1521C45.1508 20.0818 44.1626 21.3298 42.6547 21.3298C41.1733 21.3298 40.1768 20.0553 40.1768 18.1521C40.1768 16.2662 41.1733 14.9824 42.6547 14.9824Z" fill="white"/>
<path fill-rule="evenodd" clip-rule="evenodd" d="M57.5382 18.1521C57.5382 21.0874 55.9672 22.9732 53.5963 22.9732C52.9957 23.0046 52.3984 22.8663 51.8728 22.574C51.3472 22.2818 50.9146 21.8474 50.6244 21.3206H50.5795V25.9992H48.6406V13.4287H50.5173V14.9997H50.553C50.8565 14.4755 51.2965 14.0434 51.8261 13.7494C52.3558 13.4553 52.9552 13.3103 53.5606 13.3299C55.958 13.3299 57.5382 15.2249 57.5382 18.1521ZM55.5454 18.1521C55.5454 16.2397 54.5571 14.9824 53.0492 14.9824C51.5678 14.9824 50.5714 16.2662 50.5714 18.1521C50.5714 20.0553 51.5678 21.3298 53.0492 21.3298C54.5571 21.3298 55.5454 20.0818 55.5454 18.1521Z" fill="white"/>
<path d="M76.5519 11.1953V13.4307H78.3481V14.9661H76.5519V20.1734C76.5519 20.9823 76.9116 21.3593 77.7011 21.3593C77.9144 21.3556 78.1273 21.3406 78.339 21.3144V22.8407C77.9839 22.907 77.6231 22.937 77.262 22.9303C75.3497 22.9303 74.6039 22.212 74.6039 20.3802V14.9661H73.2305V13.4307H74.6038V11.1953H76.5519Z" fill="white"/>
<path fill-rule="evenodd" clip-rule="evenodd" d="M83.8705 13.3125C81.141 13.3125 79.3906 15.18 79.3906 18.152C79.3906 21.1321 81.1236 22.9915 83.8705 22.9915C86.6183 22.9915 88.3514 21.1321 88.3514 18.152C88.3514 15.18 86.6091 13.3125 83.8705 13.3125ZM83.8705 14.91C85.4415 14.91 86.3758 16.1133 86.3758 18.152C86.3758 20.1989 85.4415 21.393 83.8705 21.393C82.2994 21.393 81.3662 20.1989 81.3662 18.152C81.3662 16.1225 82.2994 14.91 83.8705 14.91Z" fill="white"/>
<path d="M89.9453 13.4286H91.7945V15.0363H91.8394C91.9645 14.5342 92.2587 14.0905 92.6724 13.7797C93.0862 13.4689 93.5943 13.31 94.1114 13.3298C94.3348 13.329 94.5577 13.3533 94.7757 13.4021V15.2157C94.4936 15.1295 94.1994 15.0899 93.9045 15.0985C93.6229 15.0871 93.3421 15.1367 93.0814 15.2441C92.8207 15.3514 92.5864 15.5139 92.3945 15.7203C92.2025 15.9268 92.0575 16.1724 91.9695 16.4401C91.8814 16.7079 91.8523 16.9916 91.8842 17.2717V22.8743H89.9453L89.9453 13.4286Z" fill="white"/>
<path fill-rule="evenodd" clip-rule="evenodd" d="M99.6487 22.9915C101.785 22.9915 103.455 21.8148 103.716 20.1L101.875 20.1C101.703 20.5268 101.398 20.8867 101.005 21.1261C100.611 21.3654 100.152 21.4715 99.6935 21.4286C99.3448 21.4414 98.9973 21.3799 98.6741 21.2482C98.351 21.1164 98.0595 20.9174 97.8192 20.6643C97.5789 20.4113 97.3951 20.11 97.2802 19.7805C97.1652 19.451 97.1217 19.1008 97.1525 18.7531V18.636H103.824V17.9717C103.824 15.1077 102.181 13.3125 99.5672 13.3125C96.91 13.3125 95.1953 15.234 95.1953 18.1968C95.1953 21.1505 96.9009 22.9915 99.6487 22.9915ZM101.884 17.2809H97.1617C97.1609 16.9652 97.2226 16.6524 97.3433 16.3606C97.464 16.0689 97.6413 15.8039 97.8649 15.581C98.0886 15.3581 98.3541 15.1818 98.6463 15.062C98.9385 14.9423 99.2514 14.8817 99.5672 14.8836C99.8801 14.8768 100.191 14.9349 100.481 15.054C100.77 15.1732 101.032 15.3509 101.249 15.576C101.467 15.8011 101.636 16.0688 101.745 16.3622C101.854 16.6555 101.901 16.9683 101.884 17.2809Z" fill="white"/>
<path d="M28.7549 2.79925H27.9225V3.64442H28.7814C29.6484 3.64442 30.1446 4.02445 30.1446 4.64136C30.1446 5.24962 29.6178 5.68109 28.8109 5.68109C28.004 5.68109 27.4569 5.29695 27.4008 4.70144H26.4727C26.5006 4.97781 26.5839 5.24572 26.7176 5.48921C26.8513 5.7327 27.0327 5.94677 27.2509 6.11867C27.4691 6.29057 27.7197 6.41677 27.9877 6.48976C28.2557 6.56275 28.5357 6.58103 28.8109 6.5435C29.0856 6.57763 29.3643 6.55659 29.6307 6.48161C29.8971 6.40663 30.1459 6.27922 30.3624 6.10685C30.579 5.93448 30.7589 5.72062 30.8918 5.4778C31.0246 5.23498 31.1076 4.96808 31.1359 4.69277C31.1509 4.3098 31.0137 3.93646 30.7542 3.65438C30.4948 3.37229 30.1342 3.20441 29.7513 3.18743V3.11407C30.0743 3.04198 30.3628 2.86129 30.5686 2.60216C30.7744 2.34303 30.8851 2.02114 30.8822 1.69023C30.8822 0.702459 30.0192 0.0162731 28.7936 0.0162731C28.5279 -0.0182456 28.258 0.00228563 28.0007 0.0765899C27.7434 0.150894 27.5041 0.277381 27.2977 0.448173C27.0914 0.618965 26.9224 0.830406 26.8013 1.06933C26.6802 1.30826 26.6096 1.56955 26.5939 1.83695H27.5078C27.5243 1.68965 27.5702 1.54715 27.6428 1.41788C27.7153 1.28861 27.813 1.17518 27.9301 1.08429C28.0472 0.993404 28.1813 0.9269 28.3246 0.888707C28.4678 0.850513 28.6172 0.841404 28.764 0.861917C29.4966 0.861917 29.9286 1.23278 29.9286 1.80689C29.9223 1.95116 29.8863 2.09257 29.8227 2.22221C29.7591 2.35185 29.6693 2.46692 29.5591 2.56015C29.4488 2.65338 29.3204 2.72275 29.182 2.76391C29.0436 2.80506 28.8982 2.81709 28.7549 2.79925Z" fill="white"/>
<path fill-rule="evenodd" clip-rule="evenodd" d="M33.9426 3.65911C32.826 3.7284 32.1953 4.21591 32.1953 5.06155C32.1961 5.25983 32.2384 5.45575 32.3195 5.63667C32.4007 5.8176 32.5188 5.97951 32.6664 6.11198C32.8139 6.24444 32.9876 6.34452 33.1761 6.40576C33.3647 6.467 33.5641 6.48804 33.7613 6.46753C34.0407 6.48045 34.3186 6.41898 34.5665 6.28939C34.8144 6.1598 35.0235 5.96674 35.1724 5.72992H35.2457V6.39013H36.1393V3.18026C36.1393 2.1879 35.475 1.60156 34.2972 1.60156C33.2315 1.60156 32.4714 2.11913 32.3767 2.92606H33.2743C33.3782 2.59392 33.7358 2.4039 34.2534 2.4039C34.8881 2.4039 35.2152 2.68408 35.2152 3.18026V3.58576L33.9426 3.65911ZM35.2152 4.26736V4.66012C35.2051 4.80832 35.1654 4.95299 35.0983 5.08551C35.0312 5.21803 34.9381 5.3357 34.8246 5.43152C34.7111 5.52734 34.5795 5.59934 34.4376 5.64325C34.2957 5.68716 34.1464 5.70208 33.9987 5.68711C33.4943 5.68711 33.1275 5.44106 33.1275 5.01825C33.1275 4.60409 33.4209 4.38402 34.0679 4.34072L35.2152 4.26736Z" fill="white"/>
<path d="M38.5951 2.47575V6.3932H37.668V1.69531H40.7612V2.4757L38.5951 2.47575Z" fill="white"/>
<path fill-rule="evenodd" clip-rule="evenodd" d="M44.4423 6.47092C45.6283 6.47092 46.3832 5.5351 46.3832 4.0425C46.3832 2.54938 45.6283 1.61765 44.4332 1.61768C44.1324 1.61028 43.8355 1.68615 43.5751 1.83691C43.3148 1.98767 43.1012 2.20745 42.9579 2.47199H42.8886V1.6956H41.9961V7.95538H42.9232V5.68182H42.9966C43.1374 5.93743 43.3482 6.1475 43.6044 6.2873C43.8605 6.4271 44.1512 6.49081 44.4423 6.47092ZM44.1744 2.45056C44.9599 2.45056 45.4296 3.05015 45.4296 4.0425C45.4296 5.03892 44.9599 5.63852 44.1703 5.63853C43.394 5.63853 42.9059 5.02569 42.9059 4.04658C42.9059 3.06288 43.394 2.45056 44.1744 2.45056Z" fill="white"/>
<path d="M47.6195 8.07583V7.27756C47.7198 7.29031 47.8209 7.2961 47.9221 7.29488C48.1196 7.30951 48.3156 7.25069 48.4724 7.12969C48.6292 7.00869 48.7358 6.83404 48.7718 6.63925L48.8411 6.41052L47.1406 1.69531H48.1503L49.3281 5.42683H49.4015L50.5752 1.69531H51.5584L49.807 6.5873C49.4056 7.73044 48.9614 8.09723 48.0036 8.09723C47.9262 8.09722 47.7061 8.08856 47.6195 8.07583Z" fill="white"/>
<path d="M53.2043 5.06064H52.2812C52.3668 6.0097 53.2002 6.47989 54.2262 6.47992C55.3867 6.47992 56.1468 5.88904 56.1468 4.99598C56.1496 4.7378 56.0577 4.48755 55.8883 4.2927C55.7189 4.09785 55.4838 3.97196 55.2277 3.93893V3.86558C55.4428 3.81445 55.6339 3.69104 55.7689 3.51597C55.9039 3.34091 55.9747 3.1248 55.9695 2.90378C55.9695 2.11011 55.3307 1.60527 54.214 1.60527C53.7867 1.54637 53.3533 1.65754 53.0071 1.91485C52.6609 2.17217 52.4296 2.55507 52.3628 2.98122H53.2563C53.3164 2.61036 53.6954 2.39029 54.214 2.39029C54.7835 2.39029 55.0596 2.65364 55.0596 2.99853C55.0596 3.39129 54.7744 3.60677 54.214 3.60677H53.5232V4.32709H54.2262C54.8824 4.32709 55.2227 4.54309 55.2227 4.99596C55.2227 5.41877 54.8437 5.6908 54.2262 5.6908C53.6832 5.6908 53.295 5.47483 53.2043 5.06064Z" fill="white"/>
<path d="M57.4766 6.3932V1.69531H58.3956V4.92659H58.4689L60.634 1.69532H61.553V6.39321H60.634V3.14464H60.5647L58.3956 6.39322L57.4766 6.3932Z" fill="white"/>
<path d="M65.138 2.4757H66.6174V1.69531H62.7305V2.4757H64.2099V6.39315H65.138V2.4757Z" fill="white"/>
<path fill-rule="evenodd" clip-rule="evenodd" d="M71.6097 5.12176C71.4833 5.55109 71.2102 5.9224 70.8379 6.17082C70.4656 6.41925 70.0179 6.52899 69.573 6.48089C69.2635 6.48906 68.9559 6.42978 68.6716 6.30716C68.3873 6.18455 68.1331 6.00153 67.9266 5.77081C67.7201 5.5401 67.5663 5.26722 67.4759 4.97111C67.3854 4.67499 67.3605 4.36275 67.4028 4.05604C67.3616 3.74839 67.387 3.43547 67.4772 3.13847C67.5675 2.84147 67.7205 2.56733 67.9258 2.3346C68.1312 2.10186 68.3842 1.91598 68.6677 1.78952C68.9512 1.66307 69.2585 1.59899 69.5689 1.60164C70.8761 1.60164 71.6657 2.4947 71.6657 3.96993V4.29345H68.3483V4.34541C68.3337 4.51784 68.3552 4.69145 68.4116 4.85506C68.468 5.01867 68.558 5.16867 68.6758 5.29543C68.7937 5.42218 68.9367 5.52287 69.0958 5.59105C69.2549 5.65922 69.4264 5.69335 69.5995 5.69126C69.8211 5.71776 70.0456 5.67776 70.2444 5.57635C70.4433 5.47494 70.6075 5.31669 70.7161 5.12173L71.6097 5.12176ZM68.3483 3.60776H70.7202C70.7319 3.45016 70.7105 3.29187 70.6574 3.14302C70.6043 2.99418 70.5207 2.85809 70.4119 2.74348C70.3031 2.62888 70.1715 2.53829 70.0257 2.47755C69.8798 2.4168 69.7228 2.38723 69.5648 2.39075C69.4044 2.38857 69.2452 2.41856 69.0966 2.47895C68.948 2.53935 68.813 2.62892 68.6996 2.74237C68.5862 2.85583 68.4967 2.99086 68.4363 3.1395C68.376 3.28814 68.3461 3.44736 68.3483 3.60776Z" fill="white"/>
<path fill-rule="evenodd" clip-rule="evenodd" d="M77.6611 1.69531H75.543V6.39318H77.6825C78.7136 6.39318 79.33 5.85829 79.33 5.03863C79.3333 4.76374 79.2309 4.49808 79.044 4.29653C78.857 4.09498 78.5998 3.97293 78.3254 3.95559V3.88224C78.5514 3.8328 78.7535 3.70726 78.898 3.52662C79.0425 3.34597 79.1205 3.12119 79.1191 2.88989C79.1191 2.16092 78.5801 1.69531 77.6611 1.69531ZM76.462 3.62346V2.40698L77.4839 2.40697C77.976 2.40697 78.2093 2.64436 78.2093 3.01063C78.2093 3.40798 77.9413 3.62346 77.381 3.62346H76.462ZM76.462 5.68155V4.30509L77.4452 4.3051C78.0708 4.3051 78.4029 4.52517 78.4029 4.99536C78.4029 5.43958 78.1095 5.68155 77.5613 5.68155H76.462Z" fill="white"/>
</g>
<defs>
<clipPath id="clip0_2608_36540">
<rect width="108" height="25.9984" fill="white"/>
</clipPath>
</defs>
</svg>
