<svg width="108" height="26" viewBox="0 0 108 26" fill="none" xmlns="http://www.w3.org/2000/svg">
<g clip-path="url(#clip0_2608_36521)">
<path fill-rule="evenodd" clip-rule="evenodd" d="M41.1517 3.69502C41.1524 4.52789 40.8684 5.24322 40.3068 5.81989C39.7449 6.39915 39.0358 6.69119 38.2025 6.69045C37.3688 6.69119 36.6596 6.39915 36.0988 5.81989C35.5361 5.24285 35.2532 4.52789 35.2539 3.69502C35.2532 2.86215 35.5361 2.14683 36.0988 1.56978C36.6596 0.99052 37.3688 0.698203 38.2025 0.699221C39.0318 0.698203 39.7387 0.99228 40.3032 1.57377C40.8677 2.15303 41.1524 2.86688 41.1517 3.69502ZM36.7588 5.22515C36.3657 4.8253 36.1693 4.32236 36.1683 3.69502C36.1693 3.06769 36.3657 2.56474 36.7588 2.16489C37.1553 1.76513 37.6285 1.56904 38.2025 1.56793C38.7759 1.56904 39.2507 1.76513 39.6461 2.16489C40.0401 2.56474 40.2363 3.06769 40.2373 3.69502C40.2363 4.32236 40.0401 4.8253 39.6461 5.22515C39.2507 5.62491 38.7759 5.821 38.2025 5.82211C37.6286 5.821 37.1553 5.62479 36.7588 5.22515Z" fill="white"/>
<path fill-rule="evenodd" clip-rule="evenodd" d="M29.5968 5.69764C30.0227 5.31499 30.2462 4.66447 30.2466 3.72431L30.2462 3.66429V0.822981H34.142V5.69764H34.7626V7.74507H33.8942V6.56561H29.8641V7.74507H28.9961V5.69764H29.5968ZM31.145 3.66243L31.1457 3.7395C31.1457 4.52227 30.9959 5.17701 30.6922 5.69764H33.2421V1.69095H31.145V3.66243Z" fill="white"/>
<path d="M45.94 6.41369C45.545 6.59857 45.1136 6.69045 44.6519 6.69045C43.8132 6.69119 43.0986 6.40313 42.5294 5.83295C41.9574 5.26313 41.6708 4.54308 41.6719 3.69502C41.6708 2.84697 41.9574 2.12691 42.5294 1.55747C43.0986 0.986909 43.8132 0.698481 44.6519 0.699222C45.5116 0.698204 46.2255 1.01442 46.7636 1.63962L46.8207 1.70576L46.7578 1.76661L46.1872 2.31911L46.1235 2.23945C45.762 1.79014 45.2812 1.56942 44.6519 1.56793C44.0665 1.56905 43.5842 1.76226 43.1836 2.15479C42.7856 2.54631 42.587 3.05175 42.5862 3.69502C42.587 4.33829 42.7853 4.84447 43.1833 5.23525C43.5839 5.62779 44.0665 5.821 44.6519 5.82211C45.2942 5.821 45.8318 5.56814 46.29 5.04676L46.3551 4.9722L46.9814 5.59889L46.9275 5.66363C46.6645 5.97985 46.3352 6.23058 45.94 6.41369Z" fill="white"/>
<path d="M49.8388 1.6908V6.56546H48.939V1.6908H47.3867V0.82283H51.3911V1.6908H49.8388Z" fill="white"/>
<path d="M54.0035 3.90571L55.3004 0.823693H56.3435L54.182 5.64222C53.887 6.32421 53.4155 6.69331 52.8016 6.69044C52.6156 6.69044 52.4198 6.64551 52.214 6.5591L52.1383 6.52724L52.1608 6.44841L52.3789 5.6752L52.4817 5.73308C52.5888 5.79347 52.6955 5.8221 52.8088 5.8221C52.963 5.82247 53.0719 5.79135 53.1395 5.74244C53.209 5.69363 53.2879 5.58869 53.3614 5.42623L53.5455 5.02174L51.6328 0.823693H52.6764L54.0035 3.90571Z" fill="white"/>
<path d="M56.918 6.56546V0.82283H61.1242V6.56546H60.2244V1.6908H57.8167V6.56546H56.918Z" fill="white"/>
<path d="M62.2109 6.56546V0.82283H63.1101V3.20537H65.7037V0.82283H66.6036V6.56546H65.7037V4.05815H63.1101V6.56546H62.2109Z" fill="white"/>
<path fill-rule="evenodd" clip-rule="evenodd" d="M73.2377 3.69502C73.2385 4.52789 72.9547 5.24322 72.3928 5.81989C71.831 6.39915 71.1221 6.69119 70.2884 6.69045C69.4547 6.69119 68.7459 6.39915 68.1847 5.81989C67.6221 5.24285 67.3391 4.52789 67.3398 3.69502C67.3391 2.86215 67.6221 2.14683 68.1847 1.56978C68.7459 0.99052 69.4547 0.698203 70.2884 0.699221C71.1177 0.698203 71.8248 0.99228 72.3892 1.57377C72.9537 2.15303 73.2385 2.86688 73.2377 3.69502ZM68.2542 3.69502C68.2553 4.32236 68.4518 4.8253 68.8447 5.22515C69.241 5.62491 69.7149 5.821 70.2884 5.82211C70.862 5.821 71.3367 5.62491 71.7321 5.22515C72.1262 4.8253 72.3226 4.32236 72.3234 3.69502C72.3226 3.06769 72.1262 2.56474 71.7321 2.16489C71.3367 1.76513 70.862 1.56904 70.2884 1.56793C69.7149 1.56904 69.241 1.76513 68.8447 2.16489C68.4518 2.56474 68.2553 3.06769 68.2542 3.69502Z" fill="white"/>
<path fill-rule="evenodd" clip-rule="evenodd" d="M79.1208 3.59173C79.3418 3.69401 79.5304 3.84496 79.6817 4.04074C79.8697 4.28387 79.9661 4.57156 79.9652 4.88954C79.9661 5.36747 79.7855 5.77668 79.4335 6.09114C79.0843 6.40624 78.6637 6.5662 78.1876 6.56546H75.9766V0.822828H78.0792C78.534 0.822087 78.937 0.975841 79.2704 1.27724C79.6076 1.57974 79.7799 1.97191 79.779 2.42891C79.779 2.70854 79.7049 2.96224 79.5567 3.17962C79.4424 3.34955 79.2957 3.48722 79.1208 3.59173ZM76.8751 5.69749H78.2191C78.472 5.696 78.6628 5.61283 78.8175 5.44055C78.9759 5.26262 79.0491 5.07802 79.05 4.87361C79.0491 4.67067 78.974 4.48866 78.811 4.31212C78.6517 4.14318 78.4525 4.05917 78.1876 4.05815H76.8751V5.69749ZM76.8751 3.20537H78.0792C78.3284 3.20426 78.5127 3.12683 78.6591 2.96798C78.8092 2.80265 78.8786 2.63222 78.8796 2.44447C78.8786 2.25598 78.811 2.08667 78.6656 1.92458C78.5248 1.7686 78.3488 1.69228 78.1107 1.6908H76.8751V3.20537Z" fill="white"/>
<path d="M89.8154 22.2206H91.5438V10.6416H89.8154V22.2206ZM105.384 14.8126L103.402 19.8327H103.343L101.287 14.8126H99.4247L102.508 21.8291L100.75 25.7319H102.554L107.306 14.8126H105.384ZM95.5815 20.9054C95.0146 20.9054 94.2254 20.6225 94.2254 19.9221C94.2254 19.0283 95.2092 18.6857 96.0576 18.6857C96.8181 18.6857 97.1748 18.8496 97.637 19.0733C97.5027 20.1457 96.5791 20.9054 95.5815 20.9054ZM95.7899 14.5593C94.5385 14.5593 93.2427 15.1107 92.7063 16.3322L94.2403 16.9726C94.5682 16.3322 95.1786 16.1234 95.8196 16.1234C96.7135 16.1234 97.6222 16.66 97.637 17.6133V17.7324C97.3239 17.5536 96.6542 17.2855 95.8344 17.2855C94.181 17.2855 92.497 18.194 92.497 19.8923C92.497 21.4416 93.8531 22.4398 95.3722 22.4398C96.5347 22.4398 97.1748 21.9185 97.5777 21.3078H97.637V22.2014H99.3052V17.762C99.3052 15.7066 97.7713 14.5593 95.7899 14.5593ZM85.108 16.2221H82.6496V12.2531H85.108C86.4002 12.2531 87.1338 13.3229 87.1338 14.2376C87.1338 15.1349 86.4002 16.2221 85.108 16.2221ZM85.0635 10.6416H80.9221V22.2206H82.6496V17.8337H85.0635C86.9791 17.8337 88.8622 16.4468 88.8622 14.2376C88.8622 12.0284 86.9791 10.6416 85.0635 10.6416ZM62.4797 20.9076C61.2856 20.9076 60.2859 19.9079 60.2859 18.5348C60.2859 17.1473 61.2856 16.1325 62.4797 16.1325C63.6586 16.1325 64.5837 17.1473 64.5837 18.5348C64.5837 19.9079 63.6586 20.9076 62.4797 20.9076ZM64.4643 15.461H64.4046C64.0168 14.9985 63.2703 14.5807 62.3303 14.5807C60.3604 14.5807 58.5549 16.3115 58.5549 18.5348C58.5549 20.7433 60.3604 22.4594 62.3303 22.4594C63.2703 22.4594 64.0168 22.0415 64.4046 21.5643H64.4643V22.1312C64.4643 23.6386 63.6586 24.4443 62.3603 24.4443C61.3008 24.4443 60.6441 23.683 60.3752 23.0415L58.8683 23.6682C59.301 24.7127 60.4502 25.9961 62.3603 25.9961C64.3898 25.9961 66.1059 24.8021 66.1059 21.8924V14.8195H64.4643V15.461ZM67.2996 22.2206H69.0307V10.6412H67.2996V22.2206ZM71.5826 18.4006C71.5378 16.8785 72.7615 16.1027 73.6418 16.1027C74.3288 16.1027 74.9105 16.4457 75.1041 16.9386L71.5826 18.4006ZM76.9548 17.0876C76.6269 16.2069 75.6265 14.5807 73.5821 14.5807C71.5526 14.5807 69.8665 16.1773 69.8665 18.52C69.8665 20.7285 71.5378 22.4594 73.776 22.4594C75.582 22.4594 76.6269 21.3551 77.0595 20.7136L75.7163 19.8181C75.2689 20.4748 74.6567 20.9076 73.776 20.9076C72.8957 20.9076 72.2691 20.5046 71.8659 19.7139L77.1336 17.5352L76.9548 17.0876ZM34.9863 15.7894V17.4606H38.9856C38.8662 18.4006 38.5528 19.087 38.0752 19.5645C37.4934 20.1467 36.583 20.7882 34.9863 20.7882C32.524 20.7882 30.599 18.8036 30.599 16.3415C30.599 13.8794 32.524 11.8946 34.9863 11.8946C36.3145 11.8946 37.2842 12.417 38.0006 13.0885L39.1795 11.9098C38.1798 10.9546 36.8515 10.2234 34.9863 10.2234C31.6136 10.2234 28.7783 12.9691 28.7783 16.3415C28.7783 19.7139 31.6136 22.4594 34.9863 22.4594C36.807 22.4594 38.1798 21.8628 39.2541 20.7433C40.3584 19.6391 40.7018 18.0873 40.7018 16.834C40.7018 16.4457 40.6721 16.0879 40.612 15.7894H34.9863ZM45.2486 20.9076C44.0545 20.9076 43.0247 19.9227 43.0247 18.52C43.0247 17.1024 44.0545 16.1325 45.2486 16.1325C46.4422 16.1325 47.4719 17.1024 47.4719 18.52C47.4719 19.9227 46.4422 20.9076 45.2486 20.9076ZM45.2486 14.5807C43.0696 14.5807 41.2937 16.237 41.2937 18.52C41.2937 20.7882 43.0696 22.4594 45.2486 22.4594C47.4271 22.4594 49.203 20.7882 49.203 18.52C49.203 16.237 47.4271 14.5807 45.2486 14.5807ZM53.8753 20.9076C52.6817 20.9076 51.6518 19.9227 51.6518 18.52C51.6518 17.1024 52.6817 16.1325 53.8753 16.1325C55.069 16.1325 56.0987 17.1024 56.0987 18.52C56.0987 19.9227 55.069 20.9076 53.8753 20.9076ZM53.8753 14.5807C51.6964 14.5807 49.9209 16.237 49.9209 18.52C49.9209 20.7882 51.6964 22.4594 53.8753 22.4594C56.0539 22.4594 57.8298 20.7882 57.8298 18.52C57.8298 16.237 56.0539 14.5807 53.8753 14.5807Z" fill="white"/>
<path d="M0.49751 24.4297L0.428686 24.3638C0.159136 24.0786 0 23.6358 0 23.0624V23.1973V2.71282C0 2.71097 0 2.70958 0 2.7081C0 2.70986 0 2.71134 0 2.71319V2.84851C0 2.22757 0.185535 1.75982 0.496398 1.47936L11.9729 12.9549L0.49751 24.4297ZM0 2.70699C0 2.65595 0.00138937 2.6064 0.00398297 2.55759C0.00138937 2.60603 0 2.65595 0 2.70699ZM0.00398297 2.55536C0.00398297 2.55472 0.00398212 2.55397 0.00426 2.55323C0.00398212 2.55397 0.00398297 2.55472 0.00398297 2.55536ZM0.00426 2.54888C0.00426 2.54851 0.00426 2.54814 0.00426 2.54777C0.00426 2.54814 0.00426 2.54851 0.00426 2.54888Z" fill="url(#paint0_linear_2608_36521)"/>
<path d="M15.7986 16.9219L15.8858 16.8723L20.4181 14.2973C20.8502 14.0517 21.1381 13.7539 21.2818 13.4388C21.1385 13.7539 20.8504 14.052 20.4181 14.2977L15.8858 16.8727L15.7986 16.9219ZM15.7997 16.7862L11.9736 12.9597L15.7993 9.13394L20.4181 11.7578C21.0046 12.091 21.3339 12.5205 21.3889 12.9594C21.3889 12.9597 21.3889 12.9605 21.3889 12.9611C21.3339 13.399 21.0046 13.8288 20.4181 14.162L15.7997 16.7862Z" fill="url(#paint1_linear_2608_36521)"/>
<path d="M1.31566 24.8711C0.995067 24.8711 0.715328 24.7669 0.497187 24.5701L0.497559 24.5697C0.7157 24.7665 0.995809 24.8711 1.3164 24.8711C1.34419 24.8711 1.37244 24.8704 1.40106 24.869C1.37207 24.8704 1.34344 24.8711 1.31566 24.8711ZM1.31603 24.7354C0.995439 24.7358 0.7157 24.6312 0.497559 24.4344V24.4341L11.973 12.9593L15.799 16.7857L2.35375 24.4246C1.98175 24.6356 1.6293 24.7354 1.31603 24.7354ZM0.494316 24.5676C0.474031 24.5491 0.454115 24.5296 0.43457 24.5093L0.494316 24.5676Z" fill="url(#paint2_linear_2608_36521)"/>
<path d="M11.9736 12.957L0.49707 1.4815C0.715211 1.28504 0.99458 1.18084 1.3148 1.18084C1.6289 1.18084 1.98163 1.28106 2.35437 1.49233L15.7993 9.13124L11.9736 12.957ZM15.8858 9.04482L2.35437 1.3571C1.98163 1.14574 1.6289 1.04552 1.3148 1.04552C1.31332 1.04552 1.3123 1.04552 1.31082 1.04552C1.31267 1.04552 1.31406 1.04552 1.31628 1.04552C1.62964 1.04552 1.982 1.14537 2.35437 1.35673L15.8858 9.04482Z" fill="url(#paint3_linear_2608_36521)"/>
<path d="M1.39908 24.8711C1.69031 24.8544 2.01275 24.7542 2.35177 24.5621L15.7959 16.9236L2.35177 24.5621C2.01303 24.7546 1.69031 24.8544 1.39908 24.8711ZM0.49521 24.5722L0.49234 24.5697C0.493359 24.5704 0.494469 24.5715 0.49521 24.5722ZM0.432594 24.5114L0.426758 24.5057V24.5053C0.428981 24.5075 0.430741 24.5096 0.432594 24.5114Z" fill="black"/>
<path d="M15.7959 16.9219L15.8832 16.8723L15.7959 16.9219Z" fill="url(#paint4_linear_2608_36521)"/>
<path d="M1.31442 24.8711C0.993833 24.8711 0.713723 24.7665 0.495582 24.5697L0.49521 24.5701C0.494469 24.5693 0.493359 24.5683 0.49234 24.5676L0.432594 24.5093C0.430741 24.5075 0.428981 24.5053 0.426758 24.5032L0.495582 24.4344C0.713723 24.6312 0.993462 24.7358 1.31405 24.7354C1.62732 24.7354 1.97977 24.6356 2.35177 24.4246L15.797 16.7857L15.8832 16.8719L15.7959 16.9214L2.35177 24.56C2.01275 24.7521 1.69031 24.8523 1.39908 24.869C1.37046 24.8704 1.34221 24.8711 1.31442 24.8711Z" fill="url(#paint5_linear_2608_36521)"/>
<path d="M0.428685 24.5C0.159136 24.2148 0 23.7719 0 23.1985V23.1981C0 23.7719 0.159136 24.2144 0.428685 24.4996V24.5Z" fill="black"/>
<path d="M0.428686 24.5C0.159136 24.2148 0 23.7723 0 23.1985V23.0635C0 23.637 0.159136 24.0798 0.428686 24.365L0.497511 24.4309L0.428686 24.5Z" fill="url(#paint6_linear_2608_36521)"/>
<path d="M0.426758 24.5L0.495582 24.4309V24.4312L0.426758 24.5Z" fill="url(#paint7_linear_2608_36521)"/>
<path d="M21.2803 13.4375C21.3515 13.2811 21.3874 13.1205 21.3874 12.9598C21.3874 12.9595 21.3874 12.9592 21.3874 12.9592C21.3874 13.1202 21.3515 13.2808 21.2803 13.4375Z" fill="black"/>
<path d="M15.8859 16.8711L15.7998 16.785L20.4182 14.1608C21.0047 13.8276 21.334 13.3977 21.389 12.9599C21.389 13.1206 21.3532 13.2812 21.282 13.4376C21.1383 13.7527 20.8503 14.0504 20.4182 14.2961L15.8859 16.8711Z" fill="url(#paint8_linear_2608_36521)"/>
<path d="M21.3855 12.957C21.3305 12.5182 21.0012 12.0887 20.4146 11.7554L15.7959 9.13161L15.882 9.04547H15.8824L20.4146 11.6205C21.0613 11.9881 21.3851 12.4725 21.3855 12.957Z" fill="url(#paint9_linear_2608_36521)"/>
<path d="M0 2.85156V2.71623C0 2.71438 0 2.7129 0 2.71114C0 2.71077 0 2.7104 0 2.71003C0 2.65899 0.00138937 2.60906 0.00398298 2.56062C0.00398298 2.55987 0.00398298 2.55913 0.00398298 2.55839C0.00398298 2.55775 0.00398212 2.557 0.00426001 2.55626C0.00426001 2.55478 0.00426001 2.55339 0.00426001 2.55191C0.00426001 2.55154 0.00426001 2.55117 0.00426001 2.5508C0.0321414 2.0569 0.185535 1.67156 0.428687 1.41433L0.496399 1.48232C0.185536 1.7628 0 2.23058 0 2.85156ZM0.494546 1.34958L0.497139 1.34699C0.496398 1.3481 0.495287 1.34884 0.494546 1.34958Z" fill="url(#paint10_linear_2608_36521)"/>
<path d="M15.7967 9.13281L2.35177 1.49391C1.97903 1.28264 1.6263 1.18242 1.3122 1.18242C0.99198 1.18242 0.712611 1.28662 0.49447 1.48307L0.426758 1.41509C0.448155 1.39267 0.46983 1.3709 0.492617 1.35034C0.493358 1.3496 0.494469 1.34886 0.49521 1.34812C0.711591 1.15315 0.987996 1.04895 1.30534 1.0471C1.30608 1.0471 1.3071 1.0471 1.30821 1.0471C1.3097 1.0471 1.31072 1.0471 1.3122 1.0471C1.6263 1.0471 1.97903 1.14731 2.35177 1.35868L15.8832 9.04639L15.8828 9.04667L15.7967 9.13281Z" fill="url(#paint11_linear_2608_36521)"/>
</g>
<defs>
<linearGradient id="paint0_linear_2608_36521" x1="10.9553" y1="2.49673" x2="-4.58915" y2="18.0422" gradientUnits="userSpaceOnUse">
<stop stop-color="#00A0FF"/>
<stop offset="0.00657445" stop-color="#00A1FF"/>
<stop offset="0.2601" stop-color="#00BEFF"/>
<stop offset="0.5122" stop-color="#00D2FF"/>
<stop offset="0.7604" stop-color="#00DFFF"/>
<stop offset="1" stop-color="#00E3FF"/>
</linearGradient>
<linearGradient id="paint1_linear_2608_36521" x1="22.1035" y1="12.9603" x2="-0.309885" y2="12.9603" gradientUnits="userSpaceOnUse">
<stop stop-color="#FFE000"/>
<stop offset="0.4087" stop-color="#FFBD00"/>
<stop offset="0.7754" stop-color="#FFA500"/>
<stop offset="1" stop-color="#FF9C00"/>
</linearGradient>
<linearGradient id="paint2_linear_2608_36521" x1="13.7594" y1="15.0853" x2="-7.32003" y2="36.166" gradientUnits="userSpaceOnUse">
<stop stop-color="#FF3A44"/>
<stop offset="1" stop-color="#C31162"/>
</linearGradient>
<linearGradient id="paint3_linear_2608_36521" x1="-2.47752" y1="-5.40512" x2="6.9353" y2="4.00829" gradientUnits="userSpaceOnUse">
<stop stop-color="#32A071"/>
<stop offset="0.0685" stop-color="#2DA771"/>
<stop offset="0.4762" stop-color="#15CF74"/>
<stop offset="0.8009" stop-color="#06E775"/>
<stop offset="1" stop-color="#00F076"/>
</linearGradient>
<linearGradient id="paint4_linear_2608_36521" x1="22.1007" y1="12.9602" x2="-0.312076" y2="12.9602" gradientUnits="userSpaceOnUse">
<stop stop-color="#CCB300"/>
<stop offset="0.4087" stop-color="#CC9700"/>
<stop offset="0.7754" stop-color="#CC8400"/>
<stop offset="1" stop-color="#CC7D00"/>
</linearGradient>
<linearGradient id="paint5_linear_2608_36521" x1="13.7574" y1="15.0853" x2="-7.32199" y2="36.166" gradientUnits="userSpaceOnUse">
<stop stop-color="#CC2E36"/>
<stop offset="1" stop-color="#9C0E4E"/>
</linearGradient>
<linearGradient id="paint6_linear_2608_36521" x1="10.9553" y1="2.49657" x2="-4.59011" y2="18.042" gradientUnits="userSpaceOnUse">
<stop stop-color="#008DE0"/>
<stop offset="0.00657445" stop-color="#008DE0"/>
<stop offset="0.2601" stop-color="#00A7E0"/>
<stop offset="0.5122" stop-color="#00B8E0"/>
<stop offset="0.7604" stop-color="#00C4E0"/>
<stop offset="1" stop-color="#00C7E0"/>
</linearGradient>
<linearGradient id="paint7_linear_2608_36521" x1="13.7577" y1="15.0816" x2="-7.32277" y2="36.1628" gradientUnits="userSpaceOnUse">
<stop stop-color="#E0333C"/>
<stop offset="1" stop-color="#AB0F56"/>
</linearGradient>
<linearGradient id="paint8_linear_2608_36521" x1="22.1037" y1="12.9591" x2="-0.309756" y2="12.9591" gradientUnits="userSpaceOnUse">
<stop stop-color="#E0C500"/>
<stop offset="0.4087" stop-color="#E0A600"/>
<stop offset="0.7754" stop-color="#E09100"/>
<stop offset="1" stop-color="#E08900"/>
</linearGradient>
<linearGradient id="paint9_linear_2608_36521" x1="22.1001" y1="12.958" x2="-0.313268" y2="12.958" gradientUnits="userSpaceOnUse">
<stop stop-color="#FFE840"/>
<stop offset="0.4087" stop-color="#FFCE40"/>
<stop offset="0.7754" stop-color="#FFBC40"/>
<stop offset="1" stop-color="#FFB540"/>
</linearGradient>
<linearGradient id="paint10_linear_2608_36521" x1="10.9553" y1="2.49976" x2="-4.59013" y2="18.0452" gradientUnits="userSpaceOnUse">
<stop stop-color="#40B8FF"/>
<stop offset="0.00657445" stop-color="#40B9FF"/>
<stop offset="0.2601" stop-color="#40CEFF"/>
<stop offset="0.5122" stop-color="#40DDFF"/>
<stop offset="0.7604" stop-color="#40E7FF"/>
<stop offset="1" stop-color="#40EAFF"/>
</linearGradient>
<linearGradient id="paint11_linear_2608_36521" x1="-2.48012" y1="-5.40355" x2="6.9327" y2="4.00986" gradientUnits="userSpaceOnUse">
<stop stop-color="#65B895"/>
<stop offset="0.0685" stop-color="#62BD95"/>
<stop offset="0.4762" stop-color="#50DB97"/>
<stop offset="0.8009" stop-color="#44ED98"/>
<stop offset="1" stop-color="#40F498"/>
</linearGradient>
<clipPath id="clip0_2608_36521">
<rect width="108" height="25.9984" fill="white"/>
</clipPath>
</defs>
</svg>
