<svg width="42" height="44" viewBox="0 0 42 44" fill="none" xmlns="http://www.w3.org/2000/svg">
<path fill-rule="evenodd" clip-rule="evenodd" d="M26.9224 0.00156649C33.1036 0.166027 38.2889 4.30952 39.9914 9.9555C40.6028 11.937 41.059 13.9746 41.3604 16.0581H33.915V18.5248H36.5756V26.8503H39.3136V18.5248H41.643C41.7477 19.7563 41.8 21.0019 41.8 22.2597C41.8 27.5656 40.8687 32.6548 39.1601 37.3737C37.8683 41.2088 34.2518 44 29.9813 44C29.1758 44 28.426 43.8222 27.6464 43.7137C18.5096 42.0606 10.3637 37.5974 4.10215 31.2758C2.8499 30.0086 1.83165 28.51 1.12286 26.8503H2.94269L3.56143 25.5089H7.6142L8.24842 26.8503H11.172V26.4648L6.25297 15.9501H4.9536L0.555511 25.2634C0.194132 24.0209 0 22.7081 0 21.3502C0 18.5648 0.816855 15.9695 2.22483 13.7893C7.14406 5.54433 16.1497 0.0514011 26.4465 6.10352e-05L26.9224 0.00156649ZM32.5826 16.0118H31.7009L26.0549 21.3308V16.0581H23.2241V26.8811H24.0594L29.7519 21.2846V26.8503H32.5826V16.0118ZM18.7593 16.2585C18.1354 16.6285 17.7307 17.1835 17.545 17.9236C17.3697 18.6636 17.2202 19.1852 17.0965 19.4884C16.9727 19.7916 16.7974 19.9998 16.5705 20.1128C16.354 20.2259 15.828 20.2824 14.9927 20.2824V16.0581H12.162V26.8503H14.9927V22.7338C15.6734 22.7338 16.1219 22.7184 16.3385 22.6875L18.7052 26.8503H21.9072V26.434L18.8135 21.6083C19.3291 21.043 19.7725 20.0872 20.1438 18.7407C20.2882 18.1754 20.7264 17.9184 21.4586 17.9698V16.0735C20.283 15.8268 19.3832 15.8885 18.7593 16.2585ZM5.58782 20.5445L6.71703 23.1501H4.47408L5.58782 20.5445Z" fill="#BABAC0"/>
</svg>
