<svg width="117" height="48" viewBox="0 0 117 48" fill="none" xmlns="http://www.w3.org/2000/svg">
<g clip-path="url(#clip0_275_67526)">
<path d="M3.5397 31.2288C6.64248 31.2288 8.2741 28.1056 9.69837 23.8785H9.92793C9.35279 27.5308 9.53669 31.2288 12.9616 31.2288C16.0409 31.2288 17.5121 28.0822 18.7994 23.8785H19.0289C18.4316 27.4618 18.592 31.2288 22.1083 31.2288C25.1876 31.2288 26.9118 28.1513 27.5783 23.9019H25.4184C25.1654 24.8431 24.7285 25.762 23.925 25.762C22.2477 25.762 23.1672 22.9595 23.9016 19.4453L24.9593 14.3461H19.788C19.788 14.3461 17.053 25.762 14.8931 25.762C13.3072 25.762 14.0884 22.6388 14.7549 19.3997L15.7892 14.3461H10.6179C9.6527 18.1354 7.60763 25.762 5.69955 25.762C5.07875 25.762 4.9183 25.371 4.9183 24.8665C4.9183 24.5446 5.00963 24.2004 5.12565 23.9019H0.391242C0.138231 24.9121 0 25.8767 0 26.8648C0 29.3453 0.919482 31.2288 3.5397 31.2288ZM30.428 31.2288C31.7844 31.2288 32.8644 30.1717 32.8644 28.8174C32.8644 27.463 31.7844 26.4059 30.428 26.4059C29.0717 26.4059 27.9917 27.463 27.9917 28.8174C27.9917 30.1717 29.0717 31.2288 30.428 31.2288ZM44.4239 25.7398C44.4239 26.8882 43.5735 27.3939 42.6319 27.3939H39.3229V24.0401H42.6553C43.713 24.0401 44.4251 24.6827 44.4251 25.7398H44.4239ZM39.3217 17.8381H42.3554C43.2292 17.8381 43.9179 18.3204 43.9179 19.3306C43.9179 20.3408 43.1132 20.8231 42.3554 20.8231H39.3217V17.8369V17.8381ZM45.7334 22.2256C46.975 21.7433 48.2154 20.6406 48.2154 18.5511C48.2154 15.8867 46.216 14.3473 43.1366 14.3473H35.0933V30.8847H43.2292C46.3542 30.8847 48.7214 29.3687 48.7214 26.2912C48.7214 24.1326 47.4341 22.7079 45.7334 22.18V22.2256ZM112.703 22.6388C112.703 24.9812 111.186 27.0942 108.427 27.0942C105.669 27.0942 104.037 25.0269 104.037 22.592C104.037 20.1571 105.554 18.1366 108.311 18.1366C111.068 18.1366 112.701 20.2039 112.701 22.6388H112.703ZM99.7409 22.6154C99.7409 27.5999 103.51 31.2288 108.382 31.2288C113.253 31.2288 117 27.5543 117 22.6154C117 17.6765 113.232 14.002 108.361 14.002C103.489 14.002 99.7421 17.6765 99.7421 22.6154H99.7409ZM77.9535 18.366V26.8648H72.9439C73.656 25.3254 74.0016 22.3625 74.0016 18.5498V18.366H77.9548H77.9535ZM82.1819 26.8648V14.3461H70.025V15.6092C70.025 21.282 69.7498 25.577 68.4625 26.8635H66.7383V33.5009H70.9667V30.8822H80.3664V33.5009H84.5948V26.8635H82.1819V26.8648ZM90.5473 26.8648V24.4299H97.4885V20.6406H90.5473V18.3673H98.1315V14.3461H86.3189V30.8835H98.3845V26.8635H90.5473V26.8648ZM60.9487 14.3461L54.9048 23.7403V14.3461H50.6764V30.8835H54.9048L60.9487 21.4892V30.8835H65.177V14.3461H60.9487Z" fill="white"/>
</g>
<defs>
<clipPath id="clip0_275_67526">
<rect width="117" height="48" fill="white" transform="translate(0 0.00195312)"/>
</clipPath>
</defs>
</svg>
