<svg width="108" height="26" viewBox="0 0 108 26" fill="none" xmlns="http://www.w3.org/2000/svg">
<g clip-path="url(#clip0_2608_36552)">
<path fill-rule="evenodd" clip-rule="evenodd" d="M11.52 24.9984C6.0894 24.9984 3.37414 24.9984 1.68707 23.3114C4.29153e-07 21.6244 2.81929e-07 18.9093 4.25056e-08 13.4791L1.80378e-10 12.5192C-2.39242e-07 7.08893 -4.29153e-07 4.3738 1.68706 2.68685C3.37414 1 6.0894 1 11.52 1L12.48 1C17.9106 1 20.6258 1 22.3129 2.68685C24 4.3738 24 7.08893 24 12.5192V13.4791C24 18.9093 24 21.6244 22.3129 23.3114C20.6258 24.9984 17.9106 24.9984 12.48 24.9984H11.52Z" fill="#2B71F6"/>
<path d="M16.9183 16.5501L18.5291 16.9524C19.2635 17.1359 19.9755 16.5833 19.9755 15.8298V8.01453C19.9755 7.35115 19.5221 6.77278 18.8755 6.61126L14.2244 5.44947C13.49 5.26601 12.7779 5.81862 12.7779 6.57209V7.98064L9.84746 7.24862C9.113 7.06515 8.40098 7.61777 8.40098 8.37126V9.78036L5.46992 9.0482C4.73546 8.86474 4.02344 9.41736 4.02344 10.1708V17.9861C4.02344 18.6495 4.47683 19.2278 5.12346 19.3893L9.77453 20.5512C10.509 20.7346 11.221 20.182 11.221 19.4285V18.0194L11.95 18.2015L11.2201 18.0166L11.2214 11.6245C11.2214 10.9652 10.8049 10.5829 10.6536 10.4658C10.6247 10.4435 10.6166 10.4019 10.6374 10.3718C10.6578 10.3422 10.6945 10.3282 10.7289 10.3386C11.3417 10.5236 11.9281 11.1518 11.9866 11.9417L12.189 17.9102C12.1956 18.106 12.322 18.2758 12.5041 18.3399L14.1521 18.7516C14.8866 18.935 15.5986 18.3824 15.5986 17.6289V16.2204L15.5995 9.82588C15.5995 9.16652 15.183 8.78429 15.0317 8.66718C15.0028 8.6448 14.9948 8.60316 15.0155 8.5731C15.0359 8.54347 15.0726 8.52949 15.107 8.53987C15.7198 8.72489 16.3062 9.35311 16.3648 10.1431L16.5672 16.1111C16.5742 16.3191 16.7172 16.4976 16.9183 16.5501Z" fill="white"/>
<path fill-rule="evenodd" clip-rule="evenodd" d="M58.9638 19.7731C58.9638 21.8585 57.1274 23.1164 54.9071 23.1164C52.7368 23.1164 50.9339 21.8751 50.3662 19.9056L52.3028 19.5745C52.9205 20.6835 53.6216 21.2958 54.9238 21.2958C56.059 21.2958 56.9104 20.7662 56.9104 19.8394C56.9104 18.7801 55.7752 18.3829 54.5064 17.9691C52.8537 17.4229 50.9339 16.7775 50.9339 14.4273C50.9339 12.342 52.6367 11.1172 54.7736 11.1172C56.8437 11.1172 58.3625 12.2758 58.9638 14.0963L57.0607 14.4107C56.6433 13.4839 55.8921 12.9378 54.8403 12.9378C53.8386 12.9378 52.9873 13.4177 52.9873 14.328C52.9873 15.3707 54.1058 15.7679 55.3912 16.1982C57.044 16.761 58.9638 17.4395 58.9638 19.7731ZM36.6093 18.5153C38.3622 18.0684 39.5141 16.7278 39.5141 14.9734C39.5141 12.8053 37.7779 11.2826 35.3405 11.2826H31V22.9508H33.0033V18.6642H34.4223L37.5275 22.9508H39.8813L36.6093 18.5153ZM35.3405 13.1032C36.5926 13.1032 37.4607 13.8645 37.4607 14.9734C37.4607 16.0823 36.5926 16.8437 35.3405 16.8437H33.0033V13.1032H35.3405ZM44.3897 23.1164C45.4415 23.1164 46.4097 22.5702 46.9606 21.6599L47.3446 22.9509H48.7803V14.3445H46.8605V19.3263C46.8605 20.551 46.0424 21.4117 44.924 21.4117C43.8221 21.4117 43.0542 20.551 43.0542 19.3263V14.3445H41.1344V19.5414C41.1344 21.6103 42.5367 23.1164 44.3897 23.1164ZM64.1867 21.2958C63.5357 21.2958 63.2186 20.9813 63.2186 20.3359V15.9997H65.8059V14.3445H63.2186V11.862H61.7828L61.2985 14.3445H59.8795V15.9997H61.2985V20.3359C61.2985 22.024 62.2834 22.9509 64.1867 22.9509H65.8059L65.9731 21.2958H64.1867ZM76.0997 18.6476C76.0997 21.2626 74.1802 23.1163 71.4586 23.1163C68.7376 23.1163 66.8176 21.2626 66.8176 18.6476C66.8176 16.0327 68.7376 14.179 71.4586 14.179C74.1802 14.179 76.0997 16.0327 76.0997 18.6476ZM68.821 18.6476C68.821 20.2696 69.8892 21.3785 71.4586 21.3785C73.028 21.3785 74.0963 20.2696 74.0963 18.6476C74.0963 17.0257 73.028 15.9168 71.4586 15.9168C69.8892 15.9168 68.821 17.0257 68.821 18.6476ZM79.6892 22.9509V17.8698C79.6892 16.7775 80.2233 16.1651 81.3917 16.1651H82.4935L82.3268 14.3445H81.9594C80.9415 14.3445 80.1568 14.6259 79.5723 15.5858L79.2048 14.3445H77.7691V22.9509H79.6892ZM87.4333 14.179C90.0709 14.179 91.9406 16.0658 91.9406 18.5483C91.9406 18.78 91.9239 18.9786 91.9071 19.1607H84.9293C85.1127 20.4847 86.0809 21.3785 87.5501 21.3785C88.5681 21.3785 89.3695 20.9482 89.7868 20.3358L91.59 20.6337C90.9389 22.2722 89.2359 23.1163 87.4333 23.1163C84.7956 23.1163 82.9259 21.246 82.9259 18.6476C82.9259 16.0492 84.7956 14.179 87.4333 14.179ZM89.8539 17.6712C89.5368 16.5953 88.6352 15.834 87.4333 15.834C86.2643 15.834 85.3633 16.5622 85.0456 17.6712H89.8539Z" fill="white"/>
<path d="M30.0596 8.51281V6.19246H30.2126C30.4109 6.19246 30.5696 6.1443 30.6886 6.04797C30.8076 5.95165 30.9067 5.75899 30.9861 5.47001C31.0711 5.17536 31.1362 4.74189 31.1816 4.1696L31.4281 1.00781H35.2021V6.19246H36.0776V8.51281H35.2021V6.99991H30.9351V8.51281H30.0596ZM34.3266 6.19246V1.81526H32.2356L32.0571 4.2121C31.9891 5.1697 31.8134 5.82982 31.5301 6.19246H34.3266Z" fill="white"/>
<path d="M38.7757 7.0849C38.328 7.0849 37.9285 6.98858 37.5772 6.79592C37.2258 6.60327 36.951 6.33412 36.7527 5.98848C36.5543 5.64283 36.4552 5.24903 36.4552 4.80706C36.4552 4.36509 36.5543 3.97128 36.7527 3.62564C36.951 3.27999 37.2258 3.01084 37.5772 2.81819C37.9285 2.61987 38.328 2.52071 38.7757 2.52071C39.2233 2.52071 39.6228 2.61987 39.9742 2.81819C40.3255 3.01084 40.6003 3.27999 40.7987 3.62564C40.997 3.97128 41.0962 4.36509 41.0962 4.80706C41.0962 5.24903 40.997 5.64283 40.7987 5.98848C40.6003 6.33412 40.3255 6.60327 39.9742 6.79592C39.6228 6.98858 39.2233 7.0849 38.7757 7.0849ZM38.7757 6.31995C39.2063 6.31995 39.5548 6.18113 39.8212 5.90348C40.0932 5.62583 40.2292 5.26036 40.2292 4.80706C40.2292 4.35375 40.0932 3.98828 39.8212 3.71063C39.5548 3.42732 39.2063 3.28566 38.7757 3.28566C38.345 3.28566 37.9965 3.42732 37.7302 3.71063C37.4638 3.98828 37.3307 4.35375 37.3307 4.80706C37.3307 5.25469 37.4638 5.62017 37.7302 5.90348C37.9965 6.18113 38.345 6.31995 38.7757 6.31995Z" fill="white"/>
<path d="M43.9275 7.0849C43.4911 7.0849 43.0973 6.98858 42.746 6.79592C42.4003 6.5976 42.1311 6.32562 41.9385 5.97998C41.7458 5.63433 41.6495 5.24336 41.6495 4.80706C41.6495 4.36509 41.7458 3.97128 41.9385 3.62564C42.1311 3.27999 42.4003 3.01084 42.746 2.81819C43.0916 2.61987 43.4855 2.52071 43.9275 2.52071C44.3978 2.52071 44.8171 2.63404 45.1855 2.86069C45.5595 3.08734 45.8258 3.41315 45.9845 3.83812L45.2025 3.96561C45.1005 3.76163 44.939 3.5973 44.718 3.47265C44.5026 3.34799 44.2561 3.28566 43.9785 3.28566C43.5478 3.28566 43.1965 3.42732 42.9245 3.71063C42.6581 3.99394 42.525 4.35942 42.525 4.80706C42.525 5.25469 42.6581 5.62017 42.9245 5.90348C43.1965 6.18113 43.5478 6.31995 43.9785 6.31995C44.2675 6.31995 44.5225 6.25479 44.7435 6.12447C44.9701 5.99414 45.1345 5.82132 45.2365 5.606L46.0185 5.73349C45.8598 6.16413 45.5878 6.49844 45.2025 6.73643C44.8228 6.96874 44.3978 7.0849 43.9275 7.0849Z" fill="white"/>
<path d="M48.5053 6.99991H47.6723V3.37065H46.1508V2.6057H50.0268V3.37065H48.5053V6.99991Z" fill="white"/>
<path d="M53.8771 2.6057H54.7356L52.8996 7.66286C52.7636 8.0425 52.5851 8.31732 52.3641 8.48731C52.1431 8.6573 51.8484 8.74229 51.4801 8.74229H50.8256L50.7491 7.97734H51.5311C51.6954 7.97734 51.8229 7.94051 51.9136 7.86685C52.0043 7.79885 52.0808 7.67703 52.1431 7.50137L52.2366 7.24639L50.2816 2.6057H51.1741L52.5681 5.99698H52.6871L53.8771 2.6057Z" fill="white"/>
<path d="M56.2368 6.99991H55.4038V2.6057H59.1438V6.99991H58.3108V3.37065H56.2368V6.99991Z" fill="white"/>
<path d="M63.1575 4.39908V2.6057H63.9905V6.99991H63.1575V5.16403H61.041V6.99991H60.208V2.6057H61.041V4.39908H63.1575Z" fill="white"/>
<path d="M67.1192 7.0849C66.6715 7.0849 66.272 6.98858 65.9207 6.79592C65.5693 6.60327 65.2945 6.33412 65.0962 5.98848C64.8978 5.64283 64.7987 5.24903 64.7987 4.80706C64.7987 4.36509 64.8978 3.97128 65.0962 3.62564C65.2945 3.27999 65.5693 3.01084 65.9207 2.81819C66.272 2.61987 66.6715 2.52071 67.1192 2.52071C67.5668 2.52071 67.9663 2.61987 68.3177 2.81819C68.669 3.01084 68.9438 3.27999 69.1422 3.62564C69.3405 3.97128 69.4397 4.36509 69.4397 4.80706C69.4397 5.24903 69.3405 5.64283 69.1422 5.98848C68.9438 6.33412 68.669 6.60327 68.3177 6.79592C67.9663 6.98858 67.5668 7.0849 67.1192 7.0849ZM67.1192 6.31995C67.5498 6.31995 67.8983 6.18113 68.1647 5.90348C68.4367 5.62583 68.5727 5.26036 68.5727 4.80706C68.5727 4.35375 68.4367 3.98828 68.1647 3.71063C67.8983 3.42732 67.5498 3.28566 67.1192 3.28566C66.6885 3.28566 66.34 3.42732 66.0737 3.71063C65.8073 3.98828 65.6742 4.35375 65.6742 4.80706C65.6742 5.25469 65.8073 5.62017 66.0737 5.90348C66.34 6.18113 66.6885 6.31995 67.1192 6.31995Z" fill="white"/>
<path d="M75.1205 4.69656C75.3471 4.78156 75.5285 4.92038 75.6645 5.11304C75.8061 5.30002 75.877 5.52101 75.877 5.77599C75.877 6.00831 75.809 6.21796 75.673 6.40495C75.5426 6.59194 75.3585 6.73926 75.1205 6.84692C74.8825 6.94891 74.6105 6.99991 74.3045 6.99991H72.205V2.6057H74.228C74.517 2.6057 74.7748 2.6567 75.0015 2.75869C75.2281 2.86069 75.4038 2.99951 75.5285 3.17517C75.6588 3.35082 75.724 3.55197 75.724 3.77863C75.724 3.99394 75.6701 4.18093 75.5625 4.33959C75.4605 4.49258 75.3131 4.61157 75.1205 4.69656ZM73.038 3.31116V4.39058H74.228C74.4206 4.39058 74.5793 4.34242 74.704 4.24609C74.8286 4.1441 74.891 4.01378 74.891 3.85512C74.891 3.69646 74.8286 3.56614 74.704 3.46415C74.5793 3.36215 74.4206 3.31116 74.228 3.31116H73.038ZM74.3045 6.29446C74.5255 6.29446 74.704 6.23779 74.84 6.12447C74.976 6.01114 75.044 5.86382 75.044 5.6825C75.044 5.50118 74.976 5.35385 74.84 5.24053C74.704 5.1272 74.5255 5.07054 74.3045 5.07054H73.038V6.29446H74.3045Z" fill="white"/>
</g>
<defs>
<clipPath id="clip0_2608_36552">
<rect width="108" height="25.9984" fill="white"/>
</clipPath>
</defs>
</svg>
