<svg width="40" height="40" viewBox="0 0 40 40" fill="none" xmlns="http://www.w3.org/2000/svg">
<path fill-rule="evenodd" clip-rule="evenodd" d="M20 40C31.0457 40 40 31.0457 40 20C40 8.9543 31.0457 0 20 0C8.9543 0 0 8.9543 0 20C0 31.0457 8.9543 40 20 40Z" fill="#BABAC0"/>
<path fill-rule="evenodd" clip-rule="evenodd" d="M20.2473 13.0007C21.4225 13.0059 26.4399 13.0497 27.8139 13.4178C28.6744 13.6478 29.352 14.3256 29.582 15.1859C30 16.7458 30 19.9999 30 19.9999C30 19.9999 30 23.2541 29.582 24.8138C29.352 25.6742 28.6744 26.3521 27.8139 26.5819C26.4399 26.9502 21.4225 26.994 20.2473 26.9992H19.7525C18.5774 26.994 13.5601 26.9502 12.1861 26.5819C11.3256 26.3521 10.648 25.6742 10.418 24.8138C10.0557 23.4621 10.0074 20.8375 10.001 20.1617V19.8381C10.0074 19.1622 10.0557 16.5378 10.418 15.1859C10.648 14.3256 11.3256 13.6478 12.1861 13.4178C13.5601 13.0497 18.5774 13.0059 19.7525 13.0007H20.2473ZM18 16.9998V22.9999L23.2 20L18 16.9998Z" fill="#333333"/>
</svg>
